<svg width="24" height="23" viewBox="0 0 24 23" fill="none" xmlns="http://www.w3.org/2000/svg">
<path fill-rule="evenodd" clip-rule="evenodd" d="M12 0C12.3812 0 12.7292 0.21667 12.8974 0.558699L16.0644 6.99858L23.1452 8.03741C23.5213 8.09258 23.8336 8.35623 23.9511 8.71775C24.0686 9.07927 23.9709 9.47614 23.6991 9.74187L18.5741 14.7523L19.7837 21.8316C19.8479 22.207 19.6932 22.5862 19.3849 22.8097C19.0765 23.0332 18.668 23.0621 18.3312 22.8844L12 19.5424L5.66884 22.8844C5.33205 23.0621 4.92352 23.0332 4.61517 22.8097C4.30681 22.5862 4.15217 22.207 4.21632 21.8316L5.42599 14.7523L0.300965 9.74187C0.0291494 9.47614 -0.0684969 9.07927 0.0489875 8.71775C0.166472 8.35623 0.478769 8.09258 0.854873 8.03741L7.93569 6.99858L11.1027 0.558699C11.2709 0.21667 11.6189 0 12 0ZM12 3.26603L9.49839 8.35297C9.35314 8.64833 9.07184 8.8533 8.74619 8.90108L3.14279 9.72316L7.19909 13.6887C7.43391 13.9183 7.54105 14.2485 7.48574 14.5722L6.52947 20.1685L11.5332 17.5273C11.8253 17.3731 12.1747 17.3731 12.4668 17.5273L17.4706 20.1685L16.5143 14.5722C16.459 14.2485 16.5661 13.9183 16.801 13.6887L20.8573 9.72316L15.2539 8.90108C14.9282 8.8533 14.6469 8.64833 14.5017 8.35297L12 3.26603Z" fill="white"/>
<path d="M9.49839 8.35297L12 3.26603L14.5017 8.35297C14.6469 8.64833 14.9282 8.8533 15.2539 8.90108L20.8573 9.72316L16.801 13.6887C16.5661 13.9183 16.459 14.2485 16.5143 14.5722L17.4706 20.1685L12.4668 17.5273C12.1747 17.3731 11.8253 17.3731 11.5332 17.5273L6.52947 20.1685L7.48574 14.5722C7.54105 14.2485 7.43391 13.9183 7.19909 13.6887L3.14279 9.72316L8.74619 8.90108C9.07184 8.8533 9.35314 8.64833 9.49839 8.35297Z" fill="white"/>
</svg>
